<svg width="23" height="25" viewBox="0 0 23 25" fill="none" xmlns="http://www.w3.org/2000/svg">
<path d="M11.25 13.75C14.245 13.75 16.9688 14.6175 18.9725 15.8387C19.9725 16.4513 20.8275 17.17 21.445 17.9513C22.0525 18.7213 22.5 19.6413 22.5 20.625C22.5 21.6812 21.9862 22.5138 21.2463 23.1075C20.5462 23.67 19.6225 24.0425 18.6413 24.3025C16.6688 24.8237 14.0363 25 11.25 25C8.46375 25 5.83125 24.825 3.85875 24.3025C2.8775 24.0425 1.95375 23.67 1.25375 23.1075C0.5125 22.5125 0 21.6812 0 20.625C0 19.6413 0.4475 18.7213 1.055 17.9513C1.6725 17.17 2.52625 16.4513 3.5275 15.8387C5.53125 14.6175 8.25625 13.75 11.25 13.75ZM11.25 0C12.9076 0 14.4973 0.65848 15.6694 1.83058C16.8415 3.00269 17.5 4.5924 17.5 6.25C17.5 7.9076 16.8415 9.49732 15.6694 10.6694C14.4973 11.8415 12.9076 12.5 11.25 12.5C9.5924 12.5 8.00268 11.8415 6.83058 10.6694C5.65848 9.49732 5 7.9076 5 6.25C5 4.5924 5.65848 3.00269 6.83058 1.83058C8.00268 0.65848 9.5924 0 11.25 0Z" fill="black"/>
</svg>
